<?xml version="1.0" standalone="no"?>
<!DOCTYPE svg PUBLIC "-//W3C//DTD SVG 20010904//EN"
 "http://www.w3.org/TR/2001/REC-SVG-20010904/DTD/svg10.dtd">
<svg version="1.0" xmlns="http://www.w3.org/2000/svg"
 width="1024.000000pt" height="1024.000000pt" viewBox="0 0 1024.000000 1024.000000"
 preserveAspectRatio="xMidYMid meet">

<g transform="translate(0.000000,1024.000000) scale(0.100000,-0.100000)"
fill="#ffd" stroke="none">
<path d="M0 5120 l0 -5120 5120 0 5120 0 0 5120 0 5120 -5120 0 -5120 0 0
-5120z m5233 3359 c650 -57 1217 -572 1334 -1213 24 -133 24 -452 0 -564 -117
-533 -482 -954 -976 -1126 -525 -183 -1119 -57 -1510 319 -151 145 -245 275
-330 455 -99 212 -141 405 -141 653 0 291 82 570 236 804 150 226 381 423 640
545 94 44 286 101 394 117 146 22 205 23 353 10z m-2474 -3269 c124 -30 248
-98 336 -184 122 -122 185 -251 206 -430 26 -220 -46 -428 -201 -582 -154
-153 -305 -214 -522 -214 -127 0 -221 19 -313 64 -256 122 -407 364 -407 651
0 176 39 301 136 432 58 80 192 185 280 222 150 62 331 78 485 41z m3177 0
c253 -64 453 -259 520 -505 14 -53 19 -104 19 -210 l0 -140 -498 0 c-273 0
-497 -2 -497 -5 0 -3 29 -35 65 -70 l65 -64 0 -212 c0 -178 -2 -213 -15 -218
-15 -6 -138 55 -215 107 -118 80 -205 177 -264 295 -68 134 -89 336 -52 497
45 199 197 387 381 474 148 70 337 90 491 51z m1663 -1 c159 -38 332 -181 409
-339 71 -145 72 -152 72 -625 0 -314 -3 -424 -12 -433 -8 -8 -67 -12 -199 -12
-161 0 -188 2 -200 17 -11 13 -14 89 -14 397 l0 381 -28 57 c-33 68 -109 139
-165 156 -56 17 -140 15 -197 -5 -59 -20 -123 -81 -162 -155 l-28 -53 -3 -380
c-3 -331 -5 -382 -19 -397 -14 -16 -37 -18 -204 -18 -177 0 -189 1 -199 20
-11 21 -16 1363 -5 1381 9 14 388 12 403 -3 7 -7 12 -44 12 -97 l0 -84 68 65
c37 35 88 77 114 92 90 52 226 66 357 35z m-3170 -14 c208 -66 399 -269 457
-485 21 -81 25 -291 5 -370 -23 -97 -93 -229 -161 -303 -162 -177 -405 -278
-526 -221 -19 9 -95 79 -168 156 l-134 139 6 -328 c2 -180 8 -329 13 -331 4
-2 36 -25 71 -51 118 -89 218 -237 252 -373 8 -32 18 -112 22 -178 6 -108 5
-122 -11 -140 -18 -19 -32 -20 -487 -20 -397 0 -468 -2 -468 -14 0 -28 98
-123 152 -147 82 -36 190 -33 285 7 l72 31 29 -31 c76 -81 243 -289 239 -300
-8 -26 -149 -88 -272 -121 -99 -26 -256 -31 -355 -11 -236 48 -418 182 -516
381 -60 122 -76 194 -77 340 -1 173 35 290 131 432 90 133 266 250 425 283
l57 11 0 807 c0 715 2 810 16 830 15 21 20 22 203 22 132 0 191 -4 199 -12 8
-8 12 -48 12 -115 0 -57 3 -103 8 -103 4 0 28 28 52 61 94 129 178 178 312
178 56 1 99 -6 157 -24z m1578 -1142 l192 -153 3 -623 3 -622 27 -51 c40 -77
104 -125 183 -139 65 -12 65 -11 65 -185 0 -133 -2 -160 -16 -171 -19 -16
-129 -20 -230 -8 -157 19 -326 142 -406 295 -69 132 -68 108 -68 1010 0 446 3
814 6 817 11 11 43 -12 241 -170z m1424 -550 l87 -73 99 51 c95 49 104 52 194
56 169 9 292 -40 419 -167 83 -83 130 -165 155 -271 20 -84 22 -968 3 -987
-17 -17 -368 -17 -392 1 -16 12 -17 46 -19 442 l-2 430 -25 45 c-59 105 -196
119 -263 26 -22 -31 -22 -35 -27 -484 -4 -388 -7 -454 -20 -462 -23 -14 -233
-13 -248 2 -9 9 -12 121 -12 443 0 427 0 431 -22 475 -33 64 -80 93 -144 88
-59 -5 -94 -28 -126 -83 -23 -40 -23 -41 -26 -475 -2 -239 -6 -438 -11 -443
-10 -10 -384 -13 -400 -3 -8 5 -11 199 -11 711 0 632 2 703 16 709 31 12 379
7 392 -6 7 -7 12 -42 12 -86 l0 -74 63 54 c152 133 199 168 210 161 7 -3 51
-39 98 -80z m-5223 25 c8 -8 12 -48 12 -115 0 -62 4 -103 10 -103 6 0 10 4 10
10 0 16 148 129 214 162 85 43 147 58 248 58 76 0 89 -2 98 -19 6 -11 10 -91
10 -189 0 -152 -2 -171 -19 -186 -15 -14 -25 -15 -65 -6 -115 25 -327 -50
-414 -148 -19 -20 -46 -59 -60 -87 l-27 -50 -5 -368 c-4 -312 -7 -369 -20
-377 -8 -5 -95 -10 -192 -10 -147 0 -179 3 -192 16 -14 14 -16 92 -16 708 0
525 3 695 12 704 17 17 379 17 396 0z m2896 -8 c227 -58 416 -244 473 -466 16
-61 18 -118 17 -496 -1 -332 -4 -431 -14 -443 -10 -12 -42 -15 -193 -15 -226
0 -217 -6 -218 134 0 82 -2 98 -12 82 -53 -82 -141 -159 -227 -200 -37 -17
-65 -21 -160 -21 -106 0 -120 2 -171 28 -155 76 -241 217 -241 393 1 91 20
160 67 239 102 173 333 280 534 247 38 -7 81 -16 96 -22 l26 -10 -3 -132 -3
-131 -91 -23 c-108 -26 -143 -43 -178 -84 -33 -40 -41 -73 -26 -109 23 -57
109 -73 186 -33 58 30 131 115 172 201 44 91 54 195 28 284 -47 160 -202 237
-391 192 l-70 -16 -35 42 c-19 24 -94 115 -167 203 -73 88 -130 163 -127 168
3 4 150 8 328 8 289 0 331 -2 400 -20z"/>
<path d="M4915 7886 c-178 -41 -309 -113 -442 -243 -114 -112 -195 -248 -243
-413 -28 -97 -38 -293 -20 -393 34 -192 126 -363 276 -513 232 -232 611 -302
942 -174 261 101 463 324 542 601 33 111 38 287 12 409 -71 346 -312 610 -648
711 -90 27 -329 36 -419 15z"/>
<path d="M2455 4796 c-140 -65 -210 -234 -156 -377 26 -68 88 -141 145 -172
34 -18 57 -22 136 -22 85 0 100 3 141 27 212 124 204 434 -13 542 -71 36 -180
37 -253 2z"/>
<path d="M5673 4812 c-28 -10 -67 -30 -86 -45 -33 -25 -77 -77 -77 -91 0 -3
115 -6 255 -6 287 0 285 0 217 68 -79 79 -208 110 -309 74z"/>
<path d="M4083 4799 c-67 -26 -145 -108 -168 -180 -41 -122 1 -265 99 -340 57
-43 104 -59 178 -59 117 0 205 56 259 165 29 60 31 70 27 147 -5 94 -19 128
-81 196 -82 88 -199 115 -314 71z"/>
<path d="M3434 3131 c-54 -25 -134 -99 -134 -123 0 -4 115 -8 255 -8 140 0
255 3 255 8 0 22 -46 76 -87 102 -94 60 -192 67 -289 21z"/>
</g>
</svg>
